<svg xmlns="http://www.w3.org/2000/svg" viewBox="0 0 320 49.72"><defs><style>.cls-1{fill:#fff;}</style></defs><g id="Calque_2" data-name="Calque 2"><g id="Calque_1-2" data-name="Calque 1"><path class="cls-1" d="M320,10.23V49.72H0V10.23A28.89,28.89,0,0,1,23,21.55c-.26-.34,8.2-6.09,18.19-3.14,6.88,2,11.26,8.44,11.56,9.73,0,0,0,.07.08.11-.19-.25,3.16-3.32,3.52-3.63a40.22,40.22,0,0,1,5.11-3.79,45,45,0,0,1,9.86-4.48c10.82-3.58,22.84-4.22,33.59-.06,1.25.48,2.47,1,3.67,1.62a26.31,26.31,0,0,1,3.26,1.91C122.23,8.73,138.33,0,154.77,0c24.14,0,45.17,12.28,53.59,33.42,3.28-6,10.95-9.45,18.93-10.28,10.76-1.11,20.66,4.21,28,11.07a40.9,40.9,0,0,1,38.39-7.13A29,29,0,0,1,320,10.23Z"/></g></g></svg>