<svg xmlns="http://www.w3.org/2000/svg" viewBox="0 0 1226.45 157"><defs><style>.cls-1{fill:#fff;}</style></defs><g id="Calque_2" data-name="Calque 2"><g id="Calque_1-2" data-name="Calque 1"><path class="cls-1" d="M1161.81,71.31a70.5,70.5,0,0,0-85.41,2.55,70.51,70.51,0,0,0-79.67-11.67A98.63,98.63,0,0,0,833.21,31.08a98.65,98.65,0,0,0-105.8,20.79A70.54,70.54,0,0,0,665.84,57,70.54,70.54,0,0,0,543.47,72.36,69.81,69.81,0,0,0,424.35,101.7a69.69,69.69,0,0,0-55.11,4.63,69.88,69.88,0,0,0-84.15-22.45A84,84,0,0,0,134,90.54,55.66,55.66,0,0,0,66.31,70.19a69.87,69.87,0,0,0-64-42c-.76,0-1.53,0-2.29,0V157H611.87v-.18h573.61c.12-.26.23-.52.34-.78l1.11.78h39.52V28.14A70.57,70.57,0,0,0,1161.81,71.31Z"/></g></g></svg>