<svg xmlns="http://www.w3.org/2000/svg" viewBox="0 0 320 68.77"><defs><style>.cls-1{fill:#fff;}</style></defs><g id="Calque_2" data-name="Calque 2"><g id="Calque_1-2" data-name="Calque 1"><circle class="cls-1" cx="218.32" cy="15.31" r="9"/><circle class="cls-1" cx="231.24" cy="24.31" r="4.28"/><path class="cls-1" d="M304.83,41.38a40.88,40.88,0,0,0-49.56,1.48A40.9,40.9,0,0,0,209,36.09,57.24,57.24,0,0,0,114.14,18,57.26,57.26,0,0,0,52.74,30.1a40.91,40.91,0,0,0-35.73,3A41.15,41.15,0,0,0,0,19.58V68.77H320V23.11A41,41,0,0,0,304.83,41.38Z"/></g></g></svg>