<svg xmlns="http://www.w3.org/2000/svg" viewBox="0 0 320 58.37"><defs><style>.cls-1{fill:#fff;}</style></defs><g id="Calque_2" data-name="Calque 2"><g id="Calque_1-2" data-name="Calque 1"><path class="cls-1" d="M320,18.88V58.37H0V18.88A28.89,28.89,0,0,1,23,30.2a40.75,40.75,0,0,1,29.79-.1A57.26,57.26,0,0,1,114.14,18,57.24,57.24,0,0,1,209,36.09a40.9,40.9,0,0,1,46.24,6.77,40.9,40.9,0,0,1,38.39-7.13A29,29,0,0,1,320,18.88Z"/><circle class="cls-1" cx="216.86" cy="16.4" r="9.19"/><circle class="cls-1" cx="232.82" cy="24.85" r="3.91"/></g></g></svg>