<svg xmlns="http://www.w3.org/2000/svg" viewBox="0 0 213.35 71"><defs><style>.cls-1{fill:#fff;}</style></defs><g id="Calque_2" data-name="Calque 2"><g id="Calque_11" data-name="Calque 11"><path class="cls-1" d="M27.62,31.9V24H43.41V40.12S37.49,48,24.33,48C10.52,48,0,37.49,0,24S10.52,0,24.33,0c12.5,0,18.42,7.23,18.42,7.23l-7.89,12.5s-3.95-3.62-8.55-3.62a7.6,7.6,0,0,0-7.9,7.9,7.6,7.6,0,0,0,7.9,7.89Z"/><path class="cls-1" d="M171,47.23h-17.1v-46H171Z"/><path class="cls-1" d="M196.25,32.76h17.1V47.23h-38.8V32.76L191,15.66H175.87V1.19H212.7V15.66Z"/><path class="cls-1" d="M150.59,15.46V1H113.47C116,9.51,125.78,42.7,127.06,47h6.43V33.87H147.3V20.72H133.49V15.46Z"/><path class="cls-1" d="M107.22,71H97.6a3.5,3.5,0,0,1-3.49-3.5v-.28h16.61v.28A3.5,3.5,0,0,1,107.22,71Z"/><rect class="cls-1" x="108.22" y="39.83" width="2.5" height="23.66"/><polygon class="cls-1" points="106.85 39.83 102.41 39.83 97.3 39.83 94.11 39.83 94.11 63.49 106.85 63.49 106.85 39.83"/><path class="cls-1" d="M72,47,64.14,31.9h-.65V47H46.39V1S55.59.33,65.46.33c14.47,0,21,6.58,21,16.11s-5.91,12.83-5.91,12.83L91.76,47Zm-6.58-27a3.73,3.73,0,0,0,3.94-3.62,3.72,3.72,0,0,0-3.94-3.61h-2v7.23Z"/><path class="cls-1" d="M140.89,56.59h3.34c2.51,0,4.16,1.83,4.16,4.68s-1.61,4.9-4.23,4.9h-3.27Zm1.63,8.11h1.56c1.8,0,2.62-1.45,2.62-3.42,0-1.68-.76-3.22-2.61-3.22h-1.57Z"/><path class="cls-1" d="M161.21,61.92H157v2.76h4.65l-.19,1.49h-6.05V56.59h6v1.49H157v2.35h4.23Z"/><path class="cls-1" d="M169.51,63.41a1.77,1.77,0,0,0,2,1.52c1.13,0,1.6-.53,1.6-1.3s-.43-1.25-2-1.66c-2.27-.59-2.9-1.48-2.9-2.79,0-1.59,1.08-2.73,3.1-2.73a2.91,2.91,0,0,1,3.25,2.7h-1.65a1.46,1.46,0,0,0-1.65-1.34c-.86,0-1.37.41-1.37,1.17s.41,1.05,1.86,1.42c2.52.66,3,1.71,3,3,0,1.68-1.14,2.88-3.39,2.88a3.15,3.15,0,0,1-3.49-2.89Z"/><path class="cls-1" d="M183.17,56.59v9.58h-1.64V56.59Z"/><path class="cls-1" d="M198,66.17H196.8a5.27,5.27,0,0,1-.13-1.07,2.84,2.84,0,0,1-2.6,1.22c-2.53,0-3.91-2.1-3.91-4.83s1.49-5,4.2-5a3.45,3.45,0,0,1,3.69,3h-1.63a2,2,0,0,0-2.09-1.56c-1.87,0-2.48,1.69-2.48,3.53s.66,3.46,2.47,3.46,2.09-1.3,2.09-2.42v-.09h-2.09V60.87H198Z"/><path class="cls-1" d="M205.29,66.17V56.59h2.06c1.14,2.18,3.39,6.36,3.83,7.41h0c-.1-1.08-.09-2.69-.09-4.26V56.59h1.49v9.58h-1.94c-1-1.94-3.45-6.63-3.92-7.73h0c.06.93.07,2.78.07,4.5v3.23Z"/><path class="cls-1" d="M107.27,30.22l-1.62-5.8L104,18.63a6.49,6.49,0,0,0-.41-1.17c-.15-.29-.33-.47-.55-.47h0a.72.72,0,0,0-.65.41,6.18,6.18,0,0,0-.5,1.2l-1.86,5.81L98.2,30.22h9.07Z"/></g></g></svg>