<svg class="svg" xmlns="http://www.w3.org/2000/svg" viewBox="0 0 225.22 76.1"><defs><style></style></defs><g id="Calque1" data-name="Calque1"><g id="Calque1" data-name="Calque1"><path class="logo" d="M34.21 18a6.74 6.74 0 00-2.81-4.16 9.65 9.65 0 00-5.52-1.46 9.88 9.88 0 00-8.32 3.8Q14.62 20 14.62 26.79t2.82 10.77q2.8 3.86 8.33 3.86 4.79 0 7.2-2A7 7 0 0035.49 34H2h4V23.83h43.19v7.26a23.49 23.49 0 01-3 12.24 20.2 20.2 0 01-8.33 7.77 26.45 26.45 0 01-12.16 2.69 27 27 0 01-13.42-3.24 22.73 22.73 0 01-9-9.26A29.8 29.8 0 010 27a29.17 29.17 0 013.45-14.68 23.41 23.41 0 019.26-9.18A26.61 26.61 0 0125.57 0a26.46 26.46 0 0111.2 2.31 21.55 21.55 0 018.14 6.37A17.9 17.9 0 0148.58 18zM52.62 53.08V.72h22.6a23 23 0 0110.2 2.12A15.85 15.85 0 0192.23 9a18 18 0 012.43 9.56 17 17 0 01-2.37 9.23 15.46 15.46 0 01-6.53 5.8l10.63 19.49H81l-9.2-17.29h-4.96v17.29zm14.22-28.33h5a10.21 10.21 0 005.86-1.45q2.13-1.44 2.13-4.79a5.63 5.63 0 00-2.13-4.91 9.82 9.82 0 00-5.85-1.53h-5zM178.91.72v52.36H164.7V.72zM182.37 53.08V45.2l24.75-33h-24.65V.72h42.75v7.87l-24.75 33h24.65v11.49zM114.93 76.1h-9.62a3.49 3.49 0 01-3.49-3.49v-.28h16.6v.28a3.49 3.49 0 01-3.49 3.49zM114.56 44.93h-12.75v23.66h12.75V44.93zM115.92 44.93h2.5v23.66h-2.5zM142.1 69.7v-1.22h.49c.29 0 .44-.17.44-.42V61h-.86v-1.28h4.11a4.84 4.84 0 013.45 1.17 4.57 4.57 0 011.27 3.47 7.44 7.44 0 01-.37 2.48 4.12 4.12 0 01-1 1.66 4.53 4.53 0 01-3.21 1.2zm2.76-8.52v7.07h1.53a2.39 2.39 0 002-.92 4.34 4.34 0 00.72-2.7q0-3.45-2.93-3.45zM165.8 69.7h-7.13v-1.22h.5c.29 0 .43-.17.43-.42V61h-.85v-1.28h6.87v2.49l-1.53.11v-.61a.6.6 0 00-.08-.35c0-.07-.17-.11-.36-.11h-2.22v2.57h3.47v1.53h-3.47v2.8h2.42c.18 0 .29 0 .34-.11a.7.7 0 00.08-.37v-.75l1.53.11zM176.61 68.35q1.8 0 1.8-1.44a1.19 1.19 0 00-.79-1.12 6.73 6.73 0 00-1.09-.38 10.24 10.24 0 01-1.11-.37 4.88 4.88 0 01-.89-.52 2.37 2.37 0 01-.89-2 2.63 2.63 0 011-2.16 3.74 3.74 0 012.49-.79 6.67 6.67 0 012.85.62v2.25l-1.53.1v-.87a.69.69 0 00-.06-.33c-.11-.19-.46-.28-1-.28a2.21 2.21 0 00-1.32.31 1.13 1.13 0 00-.43 1 1.15 1.15 0 00.36.84 1.76 1.76 0 00.71.39l1 .33a7.13 7.13 0 01.94.36 4.17 4.17 0 01.86.54 2.41 2.41 0 01.92 2.08 2.7 2.7 0 01-1 2.22 4.17 4.17 0 01-2.67.81 7 7 0 01-3-.61v-2.42l1.53-.11v.91a.64.64 0 00.06.33c0 .08.16.14.37.21a3.57 3.57 0 00.89.1zM188.84 67.94V61H188v-1.28h3.63v1.22h-.49a.44.44 0 00-.44.48v6.92h.86v1.36h-3.63v-1.22h.49a.63.63 0 00.33-.13.51.51 0 00.09-.41zM207.09 66.2v2.72a6 6 0 01-3.46 1 4.12 4.12 0 01-3.23-1.3 5.59 5.59 0 01-1.17-3.85 6.35 6.35 0 01.3-2 4.63 4.63 0 01.76-1.49 4.41 4.41 0 011.1-1 5.29 5.29 0 012.73-.71 6.66 6.66 0 012.84.62v2.55l-1.53.1v-1.2a.69.69 0 00-.06-.33c-.11-.19-.57-.28-1.37-.28q-2.9 0-2.89 3.58 0 3.78 2.61 3.78a2.92 2.92 0 001.59-.36v-2.24h-1.15v-1.31h3.73v1.2h-.34a.64.64 0 00-.34.12.51.51 0 00-.12.4zM215.33 69.7v-1.22h.54a.38.38 0 00.39-.42V61h-.86v-1.28h2.7l4.25 6.89V61h-1v-1.28h3.66v1.22h-.54c-.24 0-.36.18-.36.47v8.29h-1.76l-4.33-7v5.67h1v1.33zM161.04 12.17V.72h-36.82v15.59l11.59 36.77h2.63V32.63h20.35V21.17h-20.35v-9h22.6zM111.07 17a.8.8 0 00-1.54 0l-5.69 17.63h12.56z"/></g></g></svg>